# xmcd
#
# Track frame offsets:
#	150
#	8551
#	23836
#	37786
#	53574
#	75415
#	89419
#	106967
#	122288
#	135266
#	149325
#
# Disc length: 2198 seconds
#
# Revision: 0
# Processed by: cddbd v1.5.2PL0 Copyright (c) Steve Scherf et al.
# Submitted via: EZCDAudioConverter 2.0.7.1
#
DISCID=7108940b
DTITLE=James T - This aint That
DYEAR=2002
DGENRE=Blues
TTITLE0=This Aint That
TTITLE1=Case of the Ring
TTITLE2=Thoughts From the Floor
TTITLE3=Old Dirty Face
TTITLE4=Leger Cat
TTITLE5=The Tarot Shuffle
TTITLE6=She's Alright
TTITLE7=Minnesota
TTITLE8=Hey Natalie
TTITLE9=Tell the Witch It's Worse
TTITLE10=Bet the Farm
EXTD=
EXTT0=
EXTT1=
EXTT2=
EXTT3=
EXTT4=
EXTT5=
EXTT6=
EXTT7=
EXTT8=
EXTT9=
EXTT10=
PLAYORDER=
